# xmcd
#
# Track frame offsets:
#	150
#	10867
#	22162
#	34215
#	46450
#	65267
#	76100
#	90902
#	104035
#	118875
#	131112
#	140940
#	156322
#	174322
#	184205
#	197675
#	216850
#	242462
#	257700
#	271360
#	285515
#	307052
#	323262
#
# Disc length: 4523 seconds
#
# Revision: 1
# Processed by: cddbd v1.5.2PL0 Copyright (c) Steve Scherf et al.
# Submitted via: EasyCDDAExtractor 10.0.2.1
#
DISCID=4d11a917
DTITLE=Various Artist - AareBeat
DYEAR=1965
DGENRE=Alternative
TTITLE0=J. Maurer and The Colibris - Hey Dee Dee Run Run
TTITLE1=The Morlocks - I' Wanna Be Your Man
TTITLE2=The Morlocks - Skinny Minni
TTITLE3=The Pumas I - Johnny Guitar
TTITLE4=The Pumas I - Boom Boom
TTITLE5=The Black Caps - Boys
TTITLE6=Polo and The Jetmen - Kansas City
TTITLE7=Polo and The Jetmen - No More Doggin
TTITLE8=The Black Lions I - When I was Young
TTITLE9=The Lives - You Can't Win
TTITLE10=The Lives - Shut up
TTITLE11=The Giants - How Long Baby
TTITLE12=The Delation - Ticket To Ride
TTITLE13=The Black Birds - Mohair Sam
TTITLE14=Polo's People - Take Care Of Our Love
TTITLE15=Les Cabanes - Mery Go Round
TTITLE16=Les Modestes - I'm so Glad
TTITLE17=Doc Hollyday - Shuffle Blues
TTITLE18=The Pumas II - To Love Somebody
TTITLE19=Polo's Pop Tales - I' Wanna Be Free
TTITLE20=Polo's Pop Tales - Knock on Wood
TTITLE21=The Livings - Sweet Dreams
TTITLE22=The Black Lions II - Pop The Questions
EXTD=
EXTT0=
EXTT1=
EXTT2=
EXTT3=
EXTT4=
EXTT5=
EXTT6=
EXTT7=
EXTT8=
EXTT9=
EXTT10=
EXTT11=
EXTT12=
EXTT13=
EXTT14=
EXTT15=
EXTT16=
EXTT17=
EXTT18=
EXTT19=
EXTT20=
EXTT21=
EXTT22=
PLAYORDER=
